<svg xmlns="http://www.w3.org/2000/svg" viewBox="0 0 1920 800" preserveAspectRatio="xMidYMid slice">
  <defs>
    <linearGradient id="bg" x1="0" y1="0" x2="1" y2="1">
      <stop offset="0" stop-color="#0a1628"/>
      <stop offset="1" stop-color="#15243d"/>
    </linearGradient>
    <pattern id="grid" width="60" height="60" patternUnits="userSpaceOnUse">
      <path d="M60 0H0v60" fill="none" stroke="#ffffff" stroke-opacity="0.04" stroke-width="1"/>
    </pattern>
  </defs>
  <rect width="1920" height="800" fill="url(#bg)"/>
  <rect width="1920" height="800" fill="url(#grid)"/>
  <g stroke="#a78bfa" stroke-width="5" fill="none" opacity="0.5">
    <rect x="1220" y="380" width="240" height="140" rx="12"/>
    <path d="M1260 380 L1300 320 L1420 320 L1460 380"/>
    <circle cx="1280" cy="540" r="42"/>
    <circle cx="1400" cy="540" r="42"/>
    <path d="M1460 440 L1580 440 L1620 380 L1700 380"/>
    <path d="M1580 440 L1580 520 L1720 520 L1720 440"/>
    <circle cx="1620" cy="560" r="42"/>
    <circle cx="1700" cy="560" r="42"/>
  </g>
  <g stroke="#a78bfa" stroke-width="3" opacity="0.3">
    <path d="M1160 580 L1800 580"/>
  </g>
  <text x="80" y="740" font-family="Arial,sans-serif" font-size="36" font-weight="900" fill="#ffffff" fill-opacity="0.06">WHEEL LIFT · TIGHT ACCESS TOWING</text>
</svg>
