<svg xmlns="http://www.w3.org/2000/svg" viewBox="0 0 1920 800" preserveAspectRatio="xMidYMid slice">
  <defs>
    <linearGradient id="bg" x1="0" y1="0" x2="1" y2="1">
      <stop offset="0" stop-color="#0a1628"/>
      <stop offset="1" stop-color="#15243d"/>
    </linearGradient>
    <pattern id="grid" width="60" height="60" patternUnits="userSpaceOnUse">
      <path d="M60 0H0v60" fill="none" stroke="#ffffff" stroke-opacity="0.04" stroke-width="1"/>
    </pattern>
  </defs>
  <rect width="1920" height="800" fill="url(#bg)"/>
  <rect width="1920" height="800" fill="url(#grid)"/>
  <g stroke="#b45309" stroke-width="6" fill="none" opacity="0.5">
    <ellipse cx="1340" cy="380" rx="40" ry="24"/>
    <ellipse cx="1420" cy="380" rx="40" ry="24"/>
    <ellipse cx="1500" cy="380" rx="40" ry="24"/>
    <ellipse cx="1580" cy="380" rx="40" ry="24"/>
    <ellipse cx="1660" cy="380" rx="40" ry="24"/>
    <ellipse cx="1740" cy="380" rx="40" ry="24"/>
    <ellipse cx="1820" cy="380" rx="40" ry="24"/>
  </g>
  <g stroke="#b45309" stroke-width="4" fill="none" opacity="0.35">
    <rect x="1280" y="520" width="280" height="120" rx="8"/>
    <circle cx="1340" cy="660" r="32"/>
    <circle cx="1500" cy="660" r="32"/>
    <path d="M1560 560 L1640 560 L1640 500 L1680 500 L1700 540 L1740 540"/>
  </g>
  <g stroke="#b45309" stroke-width="3" opacity="0.25" fill="none">
    <path d="M200 720 Q400 700 600 720 T1000 720"/>
    <path d="M100 760 Q350 740 600 760 T1100 760"/>
  </g>
  <text x="80" y="740" font-family="Arial,sans-serif" font-size="36" font-weight="900" fill="#ffffff" fill-opacity="0.06">WINCHING · OFF-ROAD RECOVERY</text>
</svg>
