<svg xmlns="http://www.w3.org/2000/svg" viewBox="0 0 1920 800" preserveAspectRatio="xMidYMid slice">
  <defs>
    <linearGradient id="bg" x1="0" y1="0" x2="1" y2="1">
      <stop offset="0" stop-color="#0a1628"/>
      <stop offset="1" stop-color="#15243d"/>
    </linearGradient>
    <pattern id="grid" width="60" height="60" patternUnits="userSpaceOnUse">
      <path d="M60 0H0v60" fill="none" stroke="#ffffff" stroke-opacity="0.04" stroke-width="1"/>
    </pattern>
  </defs>
  <rect width="1920" height="800" fill="url(#bg)"/>
  <rect width="1920" height="800" fill="url(#grid)"/>
  <g stroke="#94a3b8" stroke-width="5" fill="none" opacity="0.5">
    <circle cx="1580" cy="440" r="200"/>
    <circle cx="1580" cy="440" r="140"/>
    <circle cx="1580" cy="440" r="70"/>
    <path d="M1580 240 L1580 300 M1580 580 L1580 640 M1380 440 L1440 440 M1720 440 L1780 440"/>
    <path d="M1438 298 L1478 338 M1682 542 L1722 582 M1438 582 L1478 542 M1682 338 L1722 298"/>
  </g>
  <g stroke="#94a3b8" stroke-width="4" opacity="0.3">
    <path d="M1580 240 L1560 280 L1600 280 Z"/>
    <path d="M1580 640 L1560 600 L1600 600 Z"/>
  </g>
  <text x="80" y="740" font-family="Arial,sans-serif" font-size="36" font-weight="900" fill="#ffffff" fill-opacity="0.06">FLAT TIRE CHANGE · ROADSIDE</text>
</svg>
