<svg xmlns="http://www.w3.org/2000/svg" viewBox="0 0 1920 800" preserveAspectRatio="xMidYMid slice">
  <defs>
    <linearGradient id="bg" x1="0" y1="0" x2="1" y2="1">
      <stop offset="0" stop-color="#0a1628"/>
      <stop offset="1" stop-color="#15243d"/>
    </linearGradient>
    <pattern id="grid" width="60" height="60" patternUnits="userSpaceOnUse">
      <path d="M60 0H0v60" fill="none" stroke="#ffffff" stroke-opacity="0.04" stroke-width="1"/>
    </pattern>
  </defs>
  <rect width="1920" height="800" fill="url(#bg)"/>
  <rect width="1920" height="800" fill="url(#grid)"/>
  <g stroke="#14b8a6" stroke-width="5" fill="none" opacity="0.5">
    <path d="M1300 280 L1380 360 L1340 400 L1260 320 L1240 340 L1300 400 L1340 360 L1540 560 L1600 560 L1620 540 L1420 340 L1460 300 L1540 380 L1600 320 L1520 240 L1460 240 L1440 260 L1420 280 L1400 260 L1380 240 Z"/>
  </g>
  <g stroke="#14b8a6" stroke-width="4" fill="none" opacity="0.35">
    <circle cx="1700" cy="460" r="90"/>
    <path d="M1700 370 L1700 390 M1700 530 L1700 550 M1610 460 L1630 460 M1770 460 L1790 460"/>
    <path d="M1640 400 L1656 416 M1744 504 L1760 520 M1640 520 L1656 504 M1744 416 L1760 400"/>
  </g>
  <text x="80" y="740" font-family="Arial,sans-serif" font-size="36" font-weight="900" fill="#ffffff" fill-opacity="0.06">ROADSIDE ASSISTANCE · ALL-IN-ONE</text>
</svg>
