<svg xmlns="http://www.w3.org/2000/svg" viewBox="0 0 1920 800" preserveAspectRatio="xMidYMid slice">
  <defs>
    <linearGradient id="bg" x1="0" y1="0" x2="1" y2="1">
      <stop offset="0" stop-color="#0a1628"/>
      <stop offset="1" stop-color="#15243d"/>
    </linearGradient>
    <pattern id="grid" width="60" height="60" patternUnits="userSpaceOnUse">
      <path d="M60 0H0v60" fill="none" stroke="#ffffff" stroke-opacity="0.04" stroke-width="1"/>
    </pattern>
  </defs>
  <rect width="1920" height="800" fill="url(#bg)"/>
  <rect width="1920" height="800" fill="url(#grid)"/>
  <g fill="#facc15" opacity="0.55">
    <polygon points="1550,240 1430,460 1540,460 1460,680 1660,430 1550,430"/>
  </g>
  <g stroke="#facc15" stroke-width="4" fill="none" opacity="0.35">
    <rect x="1680" y="380" width="180" height="180" rx="10"/>
    <rect x="1710" y="340" width="40" height="40" rx="4"/>
    <rect x="1790" y="340" width="40" height="40" rx="4"/>
    <path d="M1720 450 L1760 450 M1740 430 L1740 470"/>
    <path d="M1800 450 L1840 450"/>
  </g>
  <g stroke="#facc15" stroke-width="2" opacity="0.25">
    <circle cx="1550" cy="450" r="180" fill="none"/>
    <circle cx="1550" cy="450" r="240" fill="none"/>
  </g>
  <text x="80" y="740" font-family="Arial,sans-serif" font-size="36" font-weight="900" fill="#ffffff" fill-opacity="0.06">JUMP START · DEAD BATTERY FIX</text>
</svg>
