<svg xmlns="http://www.w3.org/2000/svg" viewBox="0 0 1920 800" preserveAspectRatio="xMidYMid slice">
  <defs>
    <linearGradient id="bg" x1="0" y1="0" x2="1" y2="1">
      <stop offset="0" stop-color="#0a1628"/>
      <stop offset="1" stop-color="#15243d"/>
    </linearGradient>
    <pattern id="grid" width="60" height="60" patternUnits="userSpaceOnUse">
      <path d="M60 0H0v60" fill="none" stroke="#ffffff" stroke-opacity="0.04" stroke-width="1"/>
    </pattern>
  </defs>
  <rect width="1920" height="800" fill="url(#bg)"/>
  <rect width="1920" height="800" fill="url(#grid)"/>
  <g stroke="#64748b" stroke-width="5" fill="none" opacity="0.5">
    <path d="M1260 560 L1320 460 L1400 400 L1620 420 L1720 480 L1780 560 L1260 560 Z"/>
    <path d="M1400 420 L1420 500 L1520 490 L1540 420"/>
    <path d="M1540 420 L1560 500 L1660 490 L1680 430"/>
    <circle cx="1350" cy="590" r="40"/>
    <circle cx="1680" cy="590" r="40"/>
  </g>
  <g stroke="#64748b" stroke-width="3" fill="none" opacity="0.35">
    <path d="M1380 440 L1400 470"/>
    <path d="M1580 450 L1620 480"/>
    <circle cx="1830" cy="340" r="50"/>
    <path d="M1805 340 L1855 340 M1830 315 L1830 365"/>
    <path d="M1790 300 L1870 380 M1790 380 L1870 300"/>
  </g>
  <text x="80" y="740" font-family="Arial,sans-serif" font-size="36" font-weight="900" fill="#ffffff" fill-opacity="0.06">JUNK CAR REMOVAL · CASH OFFER</text>
</svg>
