<svg xmlns="http://www.w3.org/2000/svg" viewBox="0 0 1920 800" preserveAspectRatio="xMidYMid slice">
  <defs>
    <linearGradient id="bg" x1="0" y1="0" x2="1" y2="1">
      <stop offset="0" stop-color="#0a1628"/>
      <stop offset="1" stop-color="#15243d"/>
    </linearGradient>
    <pattern id="grid" width="60" height="60" patternUnits="userSpaceOnUse">
      <path d="M60 0H0v60" fill="none" stroke="#ffffff" stroke-opacity="0.04" stroke-width="1"/>
    </pattern>
  </defs>
  <rect width="1920" height="800" fill="url(#bg)"/>
  <rect width="1920" height="800" fill="url(#grid)"/>
  <g stroke="#f59e0b" stroke-width="5" fill="none" opacity="0.45">
    <rect x="1250" y="300" width="200" height="220" rx="6"/>
    <rect x="1450" y="360" width="380" height="160" rx="6"/>
    <path d="M1280 330 L1420 330 L1420 420 L1280 420 Z"/>
    <circle cx="1320" cy="570" r="52"/>
    <circle cx="1520" cy="570" r="52"/>
    <circle cx="1680" cy="570" r="52"/>
    <circle cx="1800" cy="570" r="52"/>
    <circle cx="1320" cy="570" r="26"/>
    <circle cx="1520" cy="570" r="26"/>
    <circle cx="1680" cy="570" r="26"/>
    <circle cx="1800" cy="570" r="26"/>
  </g>
  <g stroke="#f59e0b" stroke-width="2" opacity="0.2">
    <path d="M0 650 L1200 650"/>
    <path d="M0 670 L1200 670"/>
  </g>
  <text x="80" y="740" font-family="Arial,sans-serif" font-size="36" font-weight="900" fill="#ffffff" fill-opacity="0.06">HEAVY DUTY · COMMERCIAL · 25-TON</text>
</svg>
