<svg xmlns="http://www.w3.org/2000/svg" viewBox="0 0 1920 800" preserveAspectRatio="xMidYMid slice">
  <defs>
    <linearGradient id="bg" x1="0" y1="0" x2="1" y2="1">
      <stop offset="0" stop-color="#0a1628"/>
      <stop offset="1" stop-color="#15243d"/>
    </linearGradient>
    <pattern id="grid" width="60" height="60" patternUnits="userSpaceOnUse">
      <path d="M60 0H0v60" fill="none" stroke="#ffffff" stroke-opacity="0.04" stroke-width="1"/>
    </pattern>
  </defs>
  <rect width="1920" height="800" fill="url(#bg)"/>
  <rect width="1920" height="800" fill="url(#grid)"/>
  <g stroke="#d4af37" stroke-width="5" fill="none" opacity="0.55">
    <path d="M1200 520 Q1280 420 1400 400 L1620 400 Q1720 420 1800 520 L1800 560 L1200 560 Z"/>
    <path d="M1340 440 L1400 400 L1540 400 L1600 440 Z"/>
    <circle cx="1320" cy="570" r="44"/>
    <circle cx="1680" cy="570" r="44"/>
    <circle cx="1320" cy="570" r="22"/>
    <circle cx="1680" cy="570" r="22"/>
    <path d="M1220 500 L1260 500 M1740 500 L1780 500"/>
  </g>
  <g stroke="#d4af37" stroke-width="2" opacity="0.25" fill="none">
    <path d="M200 300 L240 300 L260 320 L260 360 L240 380 L200 380 L180 360 L180 320 Z"/>
    <path d="M220 320 L220 360 M200 340 L240 340"/>
  </g>
  <text x="80" y="740" font-family="Arial,sans-serif" font-size="36" font-weight="900" fill="#ffffff" fill-opacity="0.06">EXOTIC · LUXURY · COLLECTOR TRANSPORT</text>
</svg>
