<svg xmlns="http://www.w3.org/2000/svg" viewBox="0 0 1920 800" preserveAspectRatio="xMidYMid slice">
  <defs>
    <linearGradient id="bg" x1="0" y1="0" x2="1" y2="1">
      <stop offset="0" stop-color="#0a1628"/>
      <stop offset="1" stop-color="#15243d"/>
    </linearGradient>
    <pattern id="grid" width="60" height="60" patternUnits="userSpaceOnUse">
      <path d="M60 0H0v60" fill="none" stroke="#ffffff" stroke-opacity="0.04" stroke-width="1"/>
    </pattern>
  </defs>
  <rect width="1920" height="800" fill="url(#bg)"/>
  <rect width="1920" height="800" fill="url(#grid)"/>
  <g stroke="#22c55e" stroke-width="5" fill="none" opacity="0.5">
    <rect x="1400" y="300" width="240" height="340" rx="12"/>
    <rect x="1440" y="260" width="160" height="60" rx="8"/>
    <line x1="1400" y1="400" x2="1640" y2="400"/>
    <rect x="1460" y="440" width="120" height="140" rx="4"/>
    <path d="M1640 380 L1720 380 L1740 420 L1740 540 L1720 560 L1700 560 L1700 480"/>
  </g>
  <g fill="#22c55e" opacity="0.4">
    <path d="M1760 560 Q1750 620 1790 620 Q1830 620 1820 560 Q1810 520 1790 500 Q1770 520 1760 560 Z"/>
    <path d="M1820 480 Q1815 510 1840 510 Q1865 510 1860 480 Q1855 460 1840 445 Q1825 460 1820 480 Z"/>
  </g>
  <text x="80" y="740" font-family="Arial,sans-serif" font-size="36" font-weight="900" fill="#ffffff" fill-opacity="0.06">FUEL DELIVERY · OUT OF GAS · 5 GAL</text>
</svg>
